<svg width="35" height="35" viewBox="0 0 35 35" fill="none" xmlns="http://www.w3.org/2000/svg">
<path d="M23.7891 16.4062H18.5938V11.2109C18.5938 11.0605 18.4707 10.9375 18.3203 10.9375H16.6797C16.5293 10.9375 16.4062 11.0605 16.4062 11.2109V16.4062H11.2109C11.0605 16.4062 10.9375 16.5293 10.9375 16.6797V18.3203C10.9375 18.4707 11.0605 18.5938 11.2109 18.5938H16.4062V23.7891C16.4062 23.9395 16.5293 24.0625 16.6797 24.0625H18.3203C18.4707 24.0625 18.5938 23.9395 18.5938 23.7891V18.5938H23.7891C23.9395 18.5938 24.0625 18.4707 24.0625 18.3203V16.6797C24.0625 16.5293 23.9395 16.4062 23.7891 16.4062Z" fill="white"/>
<path d="M17.5 2.1875C9.04395 2.1875 2.1875 9.04395 2.1875 17.5C2.1875 25.9561 9.04395 32.8125 17.5 32.8125C25.9561 32.8125 32.8125 25.9561 32.8125 17.5C32.8125 9.04395 25.9561 2.1875 17.5 2.1875ZM17.5 30.2148C10.4795 30.2148 4.78516 24.5205 4.78516 17.5C4.78516 10.4795 10.4795 4.78516 17.5 4.78516C24.5205 4.78516 30.2148 10.4795 30.2148 17.5C30.2148 24.5205 24.5205 30.2148 17.5 30.2148Z" fill="white"/>
</svg>
