<svg width="50" height="50" viewBox="0 0 50 50" fill="none" xmlns="http://www.w3.org/2000/svg">
<path d="M25 3.125C12.9199 3.125 3.125 12.9199 3.125 25C3.125 37.0801 12.9199 46.875 25 46.875C37.0801 46.875 46.875 37.0801 46.875 25C46.875 12.9199 37.0801 3.125 25 3.125ZM33.0762 33.3105L29.8535 33.2959L25 27.5098L20.1514 33.291L16.9238 33.3057C16.709 33.3057 16.5332 33.1348 16.5332 32.915C16.5332 32.8223 16.5674 32.7344 16.626 32.6611L22.9785 25.0928L16.626 17.5293C16.567 17.4577 16.5342 17.3681 16.5332 17.2754C16.5332 17.0605 16.709 16.8848 16.9238 16.8848L20.1514 16.8994L25 22.6855L29.8486 16.9043L33.0713 16.8896C33.2861 16.8896 33.4619 17.0605 33.4619 17.2803C33.4619 17.373 33.4277 17.4609 33.3691 17.5342L27.0264 25.0977L33.374 32.666C33.4326 32.7393 33.4668 32.8271 33.4668 32.9199C33.4668 33.1348 33.291 33.3105 33.0762 33.3105Z" fill="#9747FF"/>
</svg>
