<svg width="20" height="20" viewBox="0 0 20 20" fill="none" xmlns="http://www.w3.org/2000/svg">
<g clip-path="url(#clip0_4_6)">
<path d="M8.12501 5.60248C10.205 3.51123 15.4063 7.16998 8.12501 11.875C0.843762 7.16998 6.04501 3.51248 8.12501 5.60248Z" fill="#9747FF"/>
<path d="M16.25 8.12454C16.2527 9.85309 15.7016 11.537 14.6775 12.9295C14.7275 12.967 14.775 13.007 14.8213 13.052L19.6338 17.8645C19.8683 18.0989 20.0001 18.4169 20.0003 18.7485C20.0004 19.0801 19.8688 19.3981 19.6344 19.6327C19.4 19.8672 19.082 19.9991 18.7505 19.9992C18.4189 19.9993 18.1008 19.8677 17.8663 19.6333L13.0538 14.8208C13.0085 14.7761 12.9667 14.728 12.9288 14.677H12.9313C11.4585 15.7575 9.66468 16.3103 7.83923 16.246C6.01377 16.1818 4.26322 15.5043 2.8701 14.3229C1.47697 13.1416 0.522553 11.5253 0.160879 9.73484C-0.200796 7.94443 0.051375 6.08437 0.876692 4.45487C1.70201 2.82538 3.05232 1.52151 4.70969 0.753714C6.36707 -0.0140832 8.23481 -0.201018 10.0115 0.223079C11.7881 0.647176 13.3701 1.65756 14.502 3.09117C15.6339 4.52478 16.2497 6.29796 16.25 8.12454ZM8.12501 14.9995C9.02785 14.9995 9.92185 14.8217 10.756 14.4762C11.5901 14.1307 12.348 13.6243 12.9864 12.9859C13.6248 12.3475 14.1312 11.5896 14.4767 10.7555C14.8222 9.92138 15 9.02738 15 8.12454C15 7.22171 14.8222 6.32771 14.4767 5.4936C14.1312 4.65948 13.6248 3.90159 12.9864 3.26318C12.348 2.62478 11.5901 2.11837 10.756 1.77287C9.92185 1.42737 9.02785 1.24954 8.12501 1.24954C6.30165 1.24954 4.55296 1.97387 3.26365 3.26318C1.97434 4.5525 1.25001 6.30118 1.25001 8.12454C1.25001 9.94791 1.97434 11.6966 3.26365 12.9859C4.55296 14.2752 6.30165 14.9995 8.12501 14.9995Z" fill="#9747FF"/>
</g>
<defs>
<clipPath id="clip0_4_6">
<rect width="20" height="20" fill="white"/>
</clipPath>
</defs>
</svg>
